<?xml version="1.0" encoding="UTF-8"?>
<svg width="746px" height="100px" viewBox="0 0 746 100" version="1.1" xmlns="http://www.w3.org/2000/svg" xmlns:xlink="http://www.w3.org/1999/xlink">
    <!-- Generator: Sketch 44.1 (41455) - http://www.bohemiancoding.com/sketch -->
    <title>Todoist_Developer</title>
    <desc>Created with Sketch.</desc>
    <defs>
        <polygon id="path-1" points="0 100 745.263 100 745.263 0 0 0"></polygon>
    </defs>
    <g id="Page-1" stroke="none" stroke-width="1" fill="none" fill-rule="evenodd">
        <g id="Todoist_Developer">
            <g id="Page-1">
                <path d="M87.5,0 C94.375,0 100,5.625 100,12.5 L100,87.5 C100,94.375 94.375,100 87.5,100 L12.5,100 C5.625,100 0,94.375 0,87.5 L0,70.706 C4.157,73.126 14.491,79.145 16.996,80.559 C18.491,81.403 19.922,81.382 21.363,80.552 C23.129,79.534 60.963,57.763 61.831,57.261 C62.697,56.761 62.741,55.227 61.771,54.673 C60.801,54.12 58.959,53.074 58.273,52.673 C57.576,52.266 56.321,52.039 55.157,52.71 C54.674,52.988 22.34,71.58 21.259,72.194 C19.966,72.929 18.365,72.939 17.076,72.193 C16.058,71.604 0.032,62.291 0.032,62.291 L0,62.309 L0,53.857 C4.157,56.277 14.491,62.296 16.996,63.71 C18.491,64.554 19.922,64.533 21.363,63.702 C23.129,62.684 60.963,40.913 61.831,40.412 C62.697,39.912 62.741,38.377 61.771,37.824 C60.801,37.271 58.959,36.224 58.273,35.823 C57.576,35.416 56.321,35.19 55.157,35.86 C54.674,36.139 22.34,54.731 21.259,55.345 C19.966,56.08 18.365,56.09 17.076,55.344 C16.058,54.754 0.032,45.442 0.032,45.442 L0,45.46 L0,37.007 C4.157,39.428 14.491,45.447 16.996,46.861 C18.491,47.705 19.922,47.684 21.363,46.853 C23.129,45.835 60.963,24.064 61.831,23.562 C62.697,23.062 62.741,21.528 61.771,20.975 C60.801,20.421 58.959,19.375 58.273,18.974 C57.576,18.567 56.321,18.341 55.157,19.011 C54.674,19.29 22.34,37.881 21.259,38.495 C19.966,39.231 18.365,39.24 17.076,38.494 C16.058,37.905 0.032,28.593 0.032,28.593 L0,28.61 L0,12.5 C0,5.625 5.625,0 12.5,0 L87.5,0 Z" id="Fill-1" fill="#E44332"></path>
                <path d="M173.6816,59.4346 C173.6816,61.0446 173.9556,62.6056 174.5046,64.0956 C175.0526,65.6006 175.8546,66.9226 176.9236,68.0766 C177.9926,69.2286 179.2716,70.1506 180.7696,70.8386 C182.2666,71.5276 183.9696,71.8736 185.8676,71.8736 C187.7656,71.8736 189.4666,71.5276 190.9656,70.8386 C192.4616,70.1506 193.7426,69.2286 194.8116,68.0766 C195.8726,66.9226 196.6816,65.6006 197.2296,64.0956 C197.7706,62.6056 198.0446,61.0446 198.0446,59.4346 C198.0446,57.8246 197.7706,56.2636 197.2296,54.7656 C196.6816,53.2676 195.8726,51.9466 194.8116,50.7926 C193.7426,49.6406 192.4616,48.7186 190.9656,48.0296 C189.4666,47.3406 187.7656,46.9886 185.8676,46.9886 C183.9696,46.9886 182.2666,47.3406 180.7696,48.0296 C179.2716,48.7186 177.9926,49.6406 176.9236,50.7926 C175.8546,51.9466 175.0526,53.2676 174.5046,54.7656 C173.9556,56.2636 173.6816,57.8246 173.6816,59.4346 M163.3176,59.4346 C163.3176,56.1506 163.9076,53.1696 165.0906,50.4906 C166.2636,47.8106 167.8676,45.5256 169.8846,43.6206 C171.8956,41.7226 174.2866,40.2526 177.0506,39.2126 C179.8196,38.1796 182.7526,37.6586 185.8676,37.6586 C188.9746,37.6586 191.9146,38.1796 194.6776,39.2126 C197.4406,40.2526 199.8316,41.7226 201.8496,43.6206 C203.8676,45.5256 205.4646,47.8106 206.6446,50.4906 C207.8256,53.1696 208.4156,56.1506 208.4156,59.4346 C208.4156,62.7186 207.8256,65.6996 206.6446,68.3776 C205.4646,71.0586 203.8676,73.3426 201.8496,75.2486 C199.8316,77.1466 197.4406,78.6166 194.6776,79.6496 C191.9146,80.6896 188.9746,81.2036 185.8676,81.2036 C182.7526,81.2036 179.8196,80.6896 177.0506,79.6496 C174.2866,78.6166 171.8956,77.1466 169.8846,75.2486 C167.8676,73.3426 166.2636,71.0586 165.0906,68.3776 C163.9076,65.6996 163.3176,62.7186 163.3176,59.4346" id="Fill-3" fill="#E44332"></path>
                <path d="M223.7303,59.4346 C223.7303,61.0446 224.0043,62.6056 224.5533,64.0956 C225.1013,65.6006 225.9033,66.9226 226.9713,68.0766 C228.0403,69.2286 229.3203,70.1506 230.8173,70.8386 C232.3153,71.5276 234.0173,71.8736 235.9163,71.8736 C237.8143,71.8736 239.5153,71.5276 241.0133,70.8386 C242.5103,70.1506 243.7913,69.2286 244.8583,68.0766 C245.9213,66.9226 246.7303,65.6006 247.2783,64.0956 C247.8193,62.6056 248.0933,61.0446 248.0933,59.4346 C248.0933,57.8246 247.8193,56.2636 247.2783,54.7656 C246.7303,53.2676 245.9213,51.9466 244.8583,50.7926 C243.7913,49.6406 242.5103,48.7186 241.0133,48.0296 C239.5153,47.3406 237.8143,46.9886 235.9163,46.9886 C234.0173,46.9886 232.3153,47.3406 230.8173,48.0296 C229.3203,48.7186 228.0403,49.6406 226.9713,50.7926 C225.9033,51.9466 225.1013,53.2676 224.5533,54.7656 C224.0043,56.2636 223.7303,57.8246 223.7303,59.4346 L223.7303,59.4346 Z M248.2693,73.9466 L248.0933,73.9466 C246.5963,76.4856 244.5863,78.3276 242.0473,79.4806 C239.5153,80.6266 236.7803,81.2036 233.8423,81.2036 C230.6143,81.2036 227.7523,80.6486 225.2423,79.5226 C222.7383,78.3986 220.5943,76.8586 218.8083,74.8966 C217.0223,72.9416 215.6653,70.6346 214.7443,67.9846 C213.8223,65.3406 213.3663,62.4866 213.3663,59.4346 C213.3663,56.3826 213.8513,53.5286 214.8363,50.8776 C215.8133,48.2336 217.1773,45.9276 218.9353,43.9656 C220.6923,42.0106 222.8093,40.4706 225.2843,39.3466 C227.7663,38.2206 230.4733,37.6586 233.4053,37.6586 C235.3673,37.6586 237.0963,37.8626 238.5953,38.2626 C240.0923,38.6706 241.4133,39.1846 242.5673,39.8246 C243.7193,40.4576 244.6983,41.1326 245.5063,41.8496 C246.3083,42.5726 246.9763,43.2766 247.4893,43.9656 L247.7493,43.9656 L247.7493,21.1176 C247.7493,20.0846 248.5703,18.8626 250.0103,18.8626 L255.8663,18.8626 C257.2213,18.8626 258.1203,20.0016 258.1203,21.1176 L258.1203,77.9106 C258.1203,79.3536 256.8973,80.1696 255.8663,80.1696 L250.5353,80.1696 C249.2673,80.1696 248.2693,79.1016 248.2693,77.9146 L248.2693,73.9466 Z" id="Fill-5" fill="#E44332"></path>
                <path d="M275.2649,59.4346 C275.2649,61.0446 275.5389,62.6056 276.0879,64.0956 C276.6359,65.6006 277.4379,66.9226 278.5079,68.0766 C279.5759,69.2286 280.8559,70.1506 282.3529,70.8386 C283.8499,71.5276 285.5529,71.8736 287.4509,71.8736 C289.3489,71.8736 291.0499,71.5276 292.5489,70.8386 C294.0469,70.1506 295.3259,69.2286 296.3949,68.0766 C297.4569,66.9226 298.2649,65.6006 298.8129,64.0956 C299.3549,62.6056 299.6279,61.0446 299.6279,59.4346 C299.6279,57.8246 299.3549,56.2636 298.8129,54.7656 C298.2649,53.2676 297.4569,51.9466 296.3949,50.7926 C295.3259,49.6406 294.0469,48.7186 292.5489,48.0296 C291.0499,47.3406 289.3489,46.9886 287.4509,46.9886 C285.5529,46.9886 283.8499,47.3406 282.3529,48.0296 C280.8559,48.7186 279.5759,49.6406 278.5079,50.7926 C277.4379,51.9466 276.6359,53.2676 276.0879,54.7656 C275.5389,56.2636 275.2649,57.8246 275.2649,59.4346 M264.9009,59.4346 C264.9009,56.1506 265.4909,53.1696 266.6739,50.4906 C267.8469,47.8106 269.4509,45.5256 271.4679,43.6206 C273.4789,41.7226 275.8699,40.2526 278.6339,39.2126 C281.4029,38.1796 284.3359,37.6586 287.4509,37.6586 C290.5579,37.6586 293.4979,38.1796 296.2609,39.2126 C299.0239,40.2526 301.4149,41.7226 303.4329,43.6206 C305.4509,45.5256 307.0479,47.8106 308.2279,50.4906 C309.4089,53.1696 310.0009,56.1506 310.0009,59.4346 C310.0009,62.7186 309.4089,65.6996 308.2279,68.3776 C307.0479,71.0586 305.4509,73.3426 303.4329,75.2486 C301.4149,77.1466 299.0239,78.6166 296.2609,79.6496 C293.4979,80.6896 290.5579,81.2036 287.4509,81.2036 C284.3359,81.2036 281.4029,80.6896 278.6339,79.6496 C275.8699,78.6166 273.4789,77.1466 271.4679,75.2486 C269.4509,73.3426 267.8469,71.0586 266.6739,68.3776 C265.4909,65.6996 264.9009,62.7186 264.9009,59.4346" id="Fill-7" fill="#E44332"></path>
                <path d="M315.2254,24.6151 C315.2254,22.9421 315.8444,21.4941 317.0814,20.2481 C318.3264,19.0111 319.8944,18.3921 321.7924,18.3921 C323.6914,18.3921 325.2934,18.9831 326.5884,20.1651 C327.8814,21.3461 328.5354,22.8291 328.5354,24.6151 C328.5354,26.4011 327.8814,27.8841 326.5884,29.0661 C325.2934,30.2471 323.6914,30.8381 321.7924,30.8381 C319.8944,30.8381 318.3264,30.2191 317.0814,28.9751 C315.8444,27.7371 315.2254,26.2891 315.2254,24.6151" id="Fill-9" fill="#E44332"></path>
                <path d="M358.0228,50.1873 C356.9898,50.1873 356.2278,49.4043 356.0968,49.0633 C355.2338,46.8043 352.4878,45.9563 350.2708,45.9563 C346.7738,45.9563 344.0288,47.5773 344.0288,50.3643 C344.0288,53.0613 346.6848,53.6113 348.3248,54.1073 C350.1268,54.6533 353.5658,55.4033 355.4618,55.8483 C357.3898,56.3023 359.1848,56.9673 360.8628,57.8393 C366.3678,60.6963 367.1508,65.1933 367.1508,67.9003 C367.1508,77.8893 357.2538,81.2033 350.3818,81.2033 C345.0858,81.2033 335.1348,80.4013 332.9498,70.3023 C332.7368,69.3203 333.6078,67.8093 335.2048,67.8093 L340.9278,67.8093 C342.0548,67.8093 342.8138,68.6313 343.0348,69.2763 C343.7708,71.3053 346.1088,72.8383 350.0508,72.8383 C354.2798,72.8383 356.7798,71.1613 356.7798,68.9303 C356.7798,67.4893 355.9618,66.2053 354.8948,65.4823 C351.6868,63.3073 343.7558,63.0613 339.4508,60.7703 C337.8018,59.8933 333.6638,57.8883 333.6638,51.0533 C333.6638,41.6323 342.2288,37.6583 349.7528,37.6583 C360.8498,37.6583 364.9228,44.6703 365.3818,47.2683 C365.6358,48.7023 364.8328,50.1873 363.2188,50.1873 L358.0228,50.1873 Z" id="Fill-11" fill="#E44332"></path>
                <path d="M368.1848,45.0549 L368.1848,40.7659 C368.1848,39.7429 368.9928,38.5119 370.4248,38.5119 L375.9528,38.5119 L375.9528,27.9819 C375.9528,26.8549 376.7178,26.1689 377.2968,25.9169 C377.6388,25.7669 380.7318,24.4179 383.2018,23.3409 C384.9268,22.6319 386.3248,24.0529 386.3248,25.4229 L386.3248,38.5119 L395.4748,38.5119 C396.8878,38.5119 397.7308,39.7459 397.7308,40.7659 L397.7308,45.0609 C397.7308,46.3049 396.6178,47.3209 395.4758,47.3209 L386.3248,47.3209 L386.3248,65.4699 C386.3248,67.5429 386.2668,69.1639 387.0578,70.3619 C387.7848,71.4599 388.8508,71.8669 390.9868,71.8669 C391.5988,71.8669 392.1458,71.7649 392.6078,71.6079 C393.9628,71.1439 394.9758,71.9359 395.3188,72.6009 C395.9948,73.9059 396.7668,75.3409 397.3078,76.3689 C397.9028,77.4979 397.4248,78.9449 396.3368,79.4719 C394.5818,80.3249 392.1518,81.0169 388.8178,81.0169 C386.0548,81.0169 384.4898,80.7139 382.7388,80.1089 C380.9818,79.5039 379.3148,78.2219 378.3098,76.9839 C377.2978,75.7469 376.7968,74.0899 376.4238,72.2469 C376.0428,70.4059 375.9528,68.1699 375.9528,65.7449 L375.9528,47.3209 L370.4398,47.3209 C368.9928,47.3209 368.1848,46.0689 368.1848,45.0549" id="Fill-13" fill="#E44332"></path>
                <path d="M130.7979,45.0549 L130.7979,40.7659 C130.7979,39.7429 131.6059,38.5119 133.0379,38.5119 L139.3549,38.5119 L139.3549,27.9819 C139.3549,26.8549 140.1189,26.1689 140.6979,25.9169 C141.0409,25.7669 144.1329,24.4179 146.6029,23.3409 C148.3279,22.6319 149.7259,24.0529 149.7259,25.4229 L149.7259,38.5119 L158.8769,38.5119 C160.2889,38.5119 161.1319,39.7459 161.1319,40.7659 L161.1319,45.0609 C161.1319,46.3049 160.0189,47.3209 158.8769,47.3209 L149.7259,47.3209 L149.7259,65.4699 C149.7259,67.5429 149.6679,69.1639 150.4599,70.3619 C151.1859,71.4599 152.2519,71.8669 154.3879,71.8669 C154.9999,71.8669 155.5469,71.7649 156.0089,71.6079 C157.3639,71.1439 158.3769,71.9359 158.7209,72.6009 C159.3959,73.9059 160.1689,75.3409 160.7089,76.3689 C161.3039,77.4979 160.8259,78.9449 159.7379,79.4719 C157.9829,80.3249 155.5539,81.0169 152.2199,81.0169 C149.4559,81.0169 147.8909,80.7139 146.1409,80.1089 C144.3829,79.5039 142.7169,78.2219 141.7109,76.9839 C140.6989,75.7469 140.1979,74.0899 139.8249,72.2469 C139.4449,70.4059 139.3549,68.1699 139.3549,65.7449 L139.3549,47.3209 L133.0529,47.3209 C131.6059,47.3209 130.7979,46.0689 130.7979,45.0549" id="Fill-15" fill="#E44332"></path>
                <path d="M318.9497,80.1696 L324.8107,80.1696 C326.0517,80.1696 327.0657,79.1556 327.0657,77.9146 L327.0657,40.9536 C327.0657,39.7126 326.0517,38.6986 324.8107,38.6986 L318.9497,38.6986 C317.7087,38.6986 316.6947,39.7126 316.6947,40.9536 L316.6947,77.9146 C316.6947,79.1556 317.7087,80.1696 318.9497,80.1696" id="Fill-17" fill="#E44332"></path>
                <path d="M442.446,72.8199 C453.647,72.8199 459.038,66.3789 459.038,55.3179 L459.038,54.7579 C459.038,43.9759 454.137,37.4659 442.377,37.4659 L436.986,37.4659 L436.986,72.8199 L442.446,72.8199 Z M427.675,30.1149 L442.867,30.1149 C460.299,30.1149 468.769,40.0559 468.769,54.6169 L468.769,55.2479 C468.769,69.8079 460.299,80.1699 442.726,80.1699 L427.675,80.1699 L427.675,30.1149 Z" id="Fill-19" fill="#B3B5B8"></path>
                <path d="M499.4968,58.0484 C499.0758,51.7474 495.8558,48.9464 490.6048,48.9464 C485.4948,48.9464 482.0638,52.3764 481.2248,58.0484 L499.4968,58.0484 Z M472.4028,62.2474 L472.4028,61.6874 C472.4028,50.3474 480.1748,42.7864 490.6048,42.7864 C499.7068,42.7864 507.8968,48.1774 507.8968,61.2674 L507.8968,63.7184 L481.0848,63.7184 C481.3638,70.6484 484.8648,74.5694 491.1658,74.5694 C496.2758,74.5694 498.9358,72.5384 499.5658,68.9684 L507.7578,68.9684 C506.5668,76.6694 500.3368,80.8704 490.9558,80.8704 C480.1748,80.8704 472.4028,73.7984 472.4028,62.2474 L472.4028,62.2474 Z" id="Fill-21" fill="#B3B5B8"></path>
                <polygon id="Fill-23" fill="#B3B5B8" points="508.8727 43.5563 517.9747 43.5563 527.5647 71.4903 537.0167 43.5563 545.3477 43.5563 532.1157 80.1693 522.2447 80.1693"></polygon>
                <path d="M572.7858,58.0484 C572.3658,51.7474 569.1458,48.9464 563.8948,48.9464 C558.7848,48.9464 555.3538,52.3764 554.5148,58.0484 L572.7858,58.0484 Z M545.6928,62.2474 L545.6928,61.6874 C545.6928,50.3474 553.4648,42.7864 563.8948,42.7864 C572.9968,42.7864 581.1868,48.1774 581.1868,61.2674 L581.1868,63.7184 L554.3748,63.7184 C554.6538,70.6484 558.1548,74.5694 564.4558,74.5694 C569.5658,74.5694 572.2258,72.5384 572.8558,68.9684 L581.0478,68.9684 C579.8568,76.6694 573.6268,80.8704 564.2458,80.8704 C553.4648,80.8704 545.6928,73.7984 545.6928,62.2474 L545.6928,62.2474 Z" id="Fill-25" fill="#B3B5B8"></path>
                <mask id="mask-2" fill="white">
                    <use xlink:href="#path-1"></use>
                </mask>
                <g id="Clip-28"></g>
                <polygon id="Fill-27" fill="#B3B5B8" mask="url(#mask-2)" points="586.853 80.17 595.324 80.17 595.324 26.615 586.853 26.615"></polygon>
                <path d="M629.9753,62.109 L629.9753,61.619 C629.9753,54.058 626.1953,49.437 619.8943,49.437 C613.5943,49.437 609.7443,53.988 609.7443,61.548 L609.7443,62.109 C609.7443,69.599 613.4543,74.289 619.8943,74.289 C626.1953,74.289 629.9753,69.599 629.9753,62.109 M601.0623,62.248 L601.0623,61.687 C601.0623,50.347 609.1143,42.787 619.8943,42.787 C630.6063,42.787 638.6573,50.277 638.6573,61.478 L638.6573,62.039 C638.6573,73.449 630.6063,80.871 619.8253,80.871 C609.0433,80.871 601.0623,73.379 601.0623,62.248" id="Fill-29" fill="#B3B5B8" mask="url(#mask-2)"></path>
                <path d="M672.1843,62.109 L672.1843,61.548 C672.1843,53.427 667.9843,49.437 662.4543,49.437 C656.5733,49.437 652.3723,53.427 652.3723,61.548 L652.3723,62.109 C652.3723,70.298 656.3633,74.15 662.5243,74.15 C668.7543,74.15 672.1843,69.949 672.1843,62.109 L672.1843,62.109 Z M644.1823,43.556 L652.6533,43.556 L652.6533,49.437 C654.6833,45.937 659.2333,42.787 664.6233,42.787 C673.7943,42.787 680.8663,49.578 680.8663,61.408 L680.8663,61.968 C680.8663,73.73 674.0753,80.871 664.6233,80.871 C658.8133,80.871 654.6133,78 652.6533,74.429 L652.6533,92.701 L644.1823,92.701 L644.1823,43.556 Z" id="Fill-30" fill="#B3B5B8" mask="url(#mask-2)"></path>
                <path d="M711.0339,58.0484 C710.6139,51.7474 707.3939,48.9464 702.1429,48.9464 C697.0329,48.9464 693.6019,52.3764 692.7629,58.0484 L711.0339,58.0484 Z M683.9409,62.2474 L683.9409,61.6874 C683.9409,50.3474 691.7129,42.7864 702.1429,42.7864 C711.2449,42.7864 719.4349,48.1774 719.4349,61.2674 L719.4349,63.7184 L692.6229,63.7184 C692.9019,70.6484 696.4029,74.5694 702.7039,74.5694 C707.8139,74.5694 710.4739,72.5384 711.1039,68.9684 L719.2959,68.9684 C718.1049,76.6694 711.8749,80.8704 702.4939,80.8704 C691.7129,80.8704 683.9409,73.7984 683.9409,62.2474 L683.9409,62.2474 Z" id="Fill-31" fill="#B3B5B8" mask="url(#mask-2)"></path>
                <path d="M724.8913,43.5563 L733.3623,43.5563 L733.3623,50.4173 C735.6713,45.7963 739.1023,43.0663 745.2633,42.9953 L745.2633,50.9083 C737.8423,50.9763 733.3623,53.3573 733.3623,61.1283 L733.3623,80.1693 L724.8913,80.1693 L724.8913,43.5563 Z" id="Fill-32" fill="#B3B5B8" mask="url(#mask-2)"></path>
            </g>
        </g>
    </g>
</svg>